<svg width="586" height="434" viewBox="0 0 586 434" fill="none" xmlns="http://www.w3.org/2000/svg">
<path d="M50.7 369.8C54.7 369.8 58 371.2 60.8 374C63.6 376.8 65 380.2 65 384.1V433.7H14.3C10.3 433.7 7 432.3 4.2 429.5C1.4 426.7 0 423.3 0 419.4V395.8H53.1V384.1C53.1 383.4 52.9 382.9 52.4 382.4C51.9 381.9 51.4 381.7 50.7 381.7H0V369.8H50.7ZM53.1 421.8V407.7H11.9V419.4C11.9 420.1 12.1 420.6 12.6 421.1C13.1 421.6 13.6 421.8 14.3 421.8H53.1ZM167.8 369.8H180.5L156.5 433.7H146.8L125.3 386.2L105 433.7L104.8 433.6L104.9 433.7H95.3L70.2 369.8H82.8L100.1 412.2L118.5 369.8H132.1L151.6 412.2L167.8 369.8ZM235 369.8C239 369.8 242.3 371.2 245.1 374C247.9 376.8 249.3 380.2 249.3 384.1V407.7H196.2V419.4C196.2 420.1 196.4 420.6 196.9 421.1C197.4 421.6 197.9 421.8 198.6 421.8H249.3V433.7H198.6C194.6 433.7 191.3 432.3 188.5 429.5C185.7 426.7 184.3 423.3 184.3 419.4V384.1C184.3 380.1 185.7 376.8 188.5 374C191.3 371.2 194.7 369.8 198.6 369.8H235ZM196.2 395.8H237.4V384.1C237.4 383.4 237.2 382.9 236.7 382.4C236.2 381.9 235.7 381.7 235 381.7H198.6C197.9 381.7 197.4 381.9 196.9 382.4C196.4 382.9 196.2 383.4 196.2 384.1V395.8ZM325.2 384.2V386.6H313.3V384.2C313.3 383.5 313.1 383 312.6 382.5C312.1 382 311.6 381.8 310.9 381.8H274.5C273.8 381.8 273.3 382 272.8 382.5C272.3 383 272.1 383.5 272.1 384.2V393.5C272.1 394.2 272.3 394.7 272.8 395.2C273.3 395.7 273.8 395.9 274.5 395.9H310.9C314.9 395.9 318.2 397.3 321 400.1C323.8 402.9 325.2 406.3 325.2 410.2V419.5C325.2 423.5 323.8 426.8 321 429.6C318.2 432.4 314.8 433.8 310.9 433.8H274.5C270.5 433.8 267.2 432.4 264.4 429.6C261.6 426.8 260.2 423.4 260.2 419.5V417.1H272.1V419.5C272.1 420.2 272.3 420.7 272.8 421.2C273.3 421.7 273.8 421.9 274.5 421.9H310.9C311.6 421.9 312.1 421.7 312.6 421.2C313.1 420.7 313.3 420.2 313.3 419.5V410.2C313.3 409.5 313.1 409 312.6 408.5C312.1 408 311.6 407.8 310.9 407.8H274.5C270.5 407.8 267.2 406.4 264.4 403.6C261.6 400.8 260.2 397.4 260.2 393.5V384.2C260.2 380.2 261.6 376.9 264.4 374.1C267.2 371.3 270.6 369.9 274.5 369.9H310.9C314.9 369.9 318.2 371.3 321 374.1C323.8 376.8 325.2 380.2 325.2 384.2ZM350.4 369.8H386.8C390.8 369.8 394.1 371.2 396.9 374C399.7 376.8 401.1 380.2 401.1 384.1V419.4C401.1 423.4 399.7 426.7 396.9 429.5C394.1 432.3 390.7 433.7 386.8 433.7H350.4C346.4 433.7 343.1 432.3 340.3 429.5C337.5 426.7 336.1 423.3 336.1 419.4V384.1C336.1 380.1 337.5 376.8 340.3 374C343.1 371.2 346.5 369.8 350.4 369.8ZM386.8 381.7H350.4C349.7 381.7 349.2 381.9 348.7 382.4C348.2 382.9 348 383.4 348 384.1V419.4C348 420.1 348.2 420.6 348.7 421.1C349.2 421.6 349.7 421.8 350.4 421.8H386.8C387.5 421.8 388 421.6 388.5 421.1C389 420.6 389.2 420.1 389.2 419.4V384.1C389.2 383.4 389 382.9 388.5 382.4C388 382 387.5 381.7 386.8 381.7ZM494.3 369.8C498.3 369.8 501.6 371.2 504.4 374C507.2 376.8 508.6 380.2 508.6 384.1V433.7H496.8V384.1C496.8 383.4 496.6 382.9 496.1 382.4C495.6 381.9 495 381.7 494.3 381.7H469.1C468.4 381.7 467.9 381.9 467.4 382.4C466.9 382.9 466.7 383.4 466.7 384.1V433.7H454.8V384.1C454.8 383.4 454.6 382.9 454.1 382.4C453.6 381.9 453.1 381.7 452.4 381.7H427.1C426.4 381.7 425.9 381.9 425.4 382.4C424.9 382.9 424.7 383.4 424.7 384.1V433.7H412.8V369.8H494.3ZM570.8 369.8C574.8 369.8 578.1 371.2 580.9 374C583.7 376.8 585.1 380.2 585.1 384.1V407.7H532V419.4C532 420.1 532.2 420.6 532.7 421.1C533.2 421.6 533.7 421.8 534.4 421.8H585.1V433.7H534.4C530.4 433.7 527.1 432.3 524.3 429.5C521.5 426.7 520.1 423.3 520.1 419.4V384.1C520.1 380.1 521.5 376.8 524.3 374C527.1 371.2 530.5 369.8 534.4 369.8H570.8ZM532 395.8H573.2V384.1C573.2 383.4 573 382.9 572.5 382.4C572 381.9 571.5 381.7 570.8 381.7H534.4C533.7 381.7 533.2 381.9 532.7 382.4C532.2 382.9 532 383.4 532 384.1V395.8Z" fill="#494368"/>
<path d="M585 137.7L435 0.100002L413.9 23.1L538.9 137.7H46.2L171.2 23L150.1 0L0.0999985 137.7H0V228.4C0 269.4 39.5 302.8 88 302.8H180.5C229 302.8 268.5 269.4 268.5 228.4V168.8H316.5V228.4C316.5 269.4 356 302.8 404.5 302.8H497C545.5 302.8 585 269.4 585 228.4V137.7Z" fill="#FC60A8"/>
</svg>
