<svg
  width="1186"
  height="434"
  viewBox="0 0 1186 434"
  fill="none"
  xmlns="http://www.w3.org/2000/svg"
>
  <path
    d="M585.5 137.7L435.5 0.100002L414.4 23.1L539.4 137.7H46.7L171.7 23L150.6 0L0.599998 137.7H0.5V228.4C0.5 269.4 40 302.8 88.5 302.8H181C229.5 302.8 269 269.4 269 228.4V168.8H317V228.4C317 269.4 356.5 302.8 405 302.8H497.5C546 302.8 585.5 269.4 585.5 228.4V137.7Z"
    fill="#FC60A8"
  />
  <path
    d="M50.7 369.8C54.7 369.8 58 371.2 60.8 374C63.6 376.8 65 380.2 65 384.1V433.7H14.3C10.3 433.7 7 432.3 4.2 429.5C1.4 426.7 0 423.3 0 419.4V395.8H53.1V384.1C53.1 383.4 52.9 382.9 52.4 382.4C51.9 381.9 51.4 381.7 50.7 381.7H0V369.8H50.7ZM53.1 421.8V407.7H11.9V419.4C11.9 420.1 12.1 420.6 12.6 421.1C13.1 421.6 13.6 421.8 14.3 421.8H53.1ZM167.8 369.8H180.5L156.5 433.7H146.8L125.3 386.2L105 433.7L104.8 433.6L104.9 433.7H95.3L70.2 369.8H82.8L100.1 412.2L118.5 369.8H132.1L151.6 412.2L167.8 369.8ZM235 369.8C239 369.8 242.3 371.2 245.1 374C247.9 376.8 249.3 380.2 249.3 384.1V407.7H196.2V419.4C196.2 420.1 196.4 420.6 196.9 421.1C197.4 421.6 197.9 421.8 198.6 421.8H249.3V433.7H198.6C194.6 433.7 191.3 432.3 188.5 429.5C185.7 426.7 184.3 423.3 184.3 419.4V384.1C184.3 380.1 185.7 376.8 188.5 374C191.3 371.2 194.7 369.8 198.6 369.8H235ZM196.2 395.8H237.4V384.1C237.4 383.4 237.2 382.9 236.7 382.4C236.2 381.9 235.7 381.7 235 381.7H198.6C197.9 381.7 197.4 381.9 196.9 382.4C196.4 382.9 196.2 383.4 196.2 384.1V395.8ZM325.2 384.2V386.6H313.3V384.2C313.3 383.5 313.1 383 312.6 382.5C312.1 382 311.6 381.8 310.9 381.8H274.5C273.8 381.8 273.3 382 272.8 382.5C272.3 383 272.1 383.5 272.1 384.2V393.5C272.1 394.2 272.3 394.7 272.8 395.2C273.3 395.7 273.8 395.9 274.5 395.9H310.9C314.9 395.9 318.2 397.3 321 400.1C323.8 402.9 325.2 406.3 325.2 410.2V419.5C325.2 423.5 323.8 426.8 321 429.6C318.2 432.4 314.8 433.8 310.9 433.8H274.5C270.5 433.8 267.2 432.4 264.4 429.6C261.6 426.8 260.2 423.4 260.2 419.5V417.1H272.1V419.5C272.1 420.2 272.3 420.7 272.8 421.2C273.3 421.7 273.8 421.9 274.5 421.9H310.9C311.6 421.9 312.1 421.7 312.6 421.2C313.1 420.7 313.3 420.2 313.3 419.5V410.2C313.3 409.5 313.1 409 312.6 408.5C312.1 408 311.6 407.8 310.9 407.8H274.5C270.5 407.8 267.2 406.4 264.4 403.6C261.6 400.8 260.2 397.4 260.2 393.5V384.2C260.2 380.2 261.6 376.9 264.4 374.1C267.2 371.3 270.6 369.9 274.5 369.9H310.9C314.9 369.9 318.2 371.3 321 374.1C323.8 376.8 325.2 380.2 325.2 384.2ZM350.4 369.8H386.8C390.8 369.8 394.1 371.2 396.9 374C399.7 376.8 401.1 380.2 401.1 384.1V419.4C401.1 423.4 399.7 426.7 396.9 429.5C394.1 432.3 390.7 433.7 386.8 433.7H350.4C346.4 433.7 343.1 432.3 340.3 429.5C337.5 426.7 336.1 423.3 336.1 419.4V384.1C336.1 380.1 337.5 376.8 340.3 374C343.1 371.2 346.5 369.8 350.4 369.8ZM386.8 381.7H350.4C349.7 381.7 349.2 381.9 348.7 382.4C348.2 382.9 348 383.4 348 384.1V419.4C348 420.1 348.2 420.6 348.7 421.1C349.2 421.6 349.7 421.8 350.4 421.8H386.8C387.5 421.8 388 421.6 388.5 421.1C389 420.6 389.2 420.1 389.2 419.4V384.1C389.2 383.4 389 382.9 388.5 382.4C388 382 387.5 381.7 386.8 381.7ZM494.3 369.8C498.3 369.8 501.6 371.2 504.4 374C507.2 376.8 508.6 380.2 508.6 384.1V433.7H496.8V384.1C496.8 383.4 496.6 382.9 496.1 382.4C495.6 381.9 495 381.7 494.3 381.7H469.1C468.4 381.7 467.9 381.9 467.4 382.4C466.9 382.9 466.7 383.4 466.7 384.1V433.7H454.8V384.1C454.8 383.4 454.6 382.9 454.1 382.4C453.6 381.9 453.1 381.7 452.4 381.7H427.1C426.4 381.7 425.9 381.9 425.4 382.4C424.9 382.9 424.7 383.4 424.7 384.1V433.7H412.8V369.8H494.3ZM570.8 369.8C574.8 369.8 578.1 371.2 580.9 374C583.7 376.8 585.1 380.2 585.1 384.1V407.7H532V419.4C532 420.1 532.2 420.6 532.7 421.1C533.2 421.6 533.7 421.8 534.4 421.8H585.1V433.7H534.4C530.4 433.7 527.1 432.3 524.3 429.5C521.5 426.7 520.1 423.3 520.1 419.4V384.1C520.1 380.1 521.5 376.8 524.3 374C527.1 371.2 530.5 369.8 534.4 369.8H570.8ZM532 395.8H573.2V384.1C573.2 383.4 573 382.9 572.5 382.4C572 381.9 571.5 381.7 570.8 381.7H534.4C533.7 381.7 533.2 381.9 532.7 382.4C532.2 382.9 532 383.4 532 384.1V395.8Z"
    fill="#494368"
  />
  <path
    fill-rule="evenodd"
    clip-rule="evenodd"
    d="M910.375 25.8863H915.498C915.359 28.245 914.715 30.5468 913.611 32.6378C912.506 34.7287 910.967 36.5604 909.094 38.0103C911.194 38.9832 912.971 40.5328 914.217 42.4771C918.797 38.1179 921.544 32.1874 921.902 25.8863H937.912V35.4579H932.788C933.331 37.4032 933.973 39.32 934.71 41.2009H941.754C943.675 39.9247 944.315 38.6485 944.315 35.4579V25.8863H949.438V20.1433H944.315V6.74298H931.508C932.598 5.40196 933.464 3.89343 934.069 2.27622H926.385C926.188 4.02708 925.757 5.74389 925.104 7.38109H916.138V20.1433H910.375V25.8863ZM937.912 11.8479V20.1433H931.508L934.71 16.9527L928.946 11.8479H937.912ZM922.542 19.5052V11.8479H928.306L924.463 15.0384L930.227 20.1433H922.542V19.5052ZM1185.1 96.7164V67.3634H1103.77V49.4963H1067.27V67.3634H919.34L932.148 50.7725H896.287L862.346 95.4402V87.1448H848.898L793.185 159.889V183.499H869.39L926.385 143.937L991.063 187.966V153.508L950.719 126.708L985.94 102.459V96.7164H1067.27V115.222H1004.51V144.575H1067.27V150.318L965.448 220.51L899.488 175.842L878.356 191.157H862.346V240.929H891.163V205.195L941.754 240.929H989.142L1067.27 186.052V240.929H990.423V403.009H898.848V332.179L906.533 328.988V395.99L939.833 381.951V316.226L948.798 313.036V378.761L982.098 365.36V264.539L939.833 280.492V241.567H906.533V293.254L898.848 296.445V262.625H864.908V309.207L857.223 312.397V288.149H838.652V251.139H805.352V288.149H789.983V317.502H805.352V371.103L785.5 378.123V419.6L857.223 393.437V351.96L838.652 358.979V317.502H848.258V351.322L864.908 344.941V418.324L893.725 433H1183.18V242.205H1183.82V205.833L1103.77 150.318V144.575H1166.53V115.222H1103.77V96.7164H1185.1ZM863.627 152.87H841.854L857.863 130.536H872.592L884.119 114.583L901.41 126.708L863.627 152.87ZM925.104 110.117L904.612 96.7164H944.315L925.104 110.117ZM1087.12 373.018H1092.24V393.437H1087.12V373.018ZM1065.35 373.018H1069.83L1074.31 378.761L1078.8 385.142H1079.44C1079.04 382.608 1078.83 380.049 1078.8 377.485V373.018H1083.92V393.437H1079.44L1074.95 387.694L1070.47 381.313V393.437H1065.35V373.018ZM1026.28 373.018H1033.97C1039.09 373.018 1042.29 375.57 1042.29 380.037C1042.27 381.261 1041.9 382.453 1041.22 383.471C1040.54 384.489 1039.58 385.291 1038.45 385.78L1042.93 393.437H1037.81L1033.97 387.056H1031.41V393.437H1026.28V373.018ZM1012.84 373.018H1017.32L1025.64 393.437H1020.52L1019.24 390.247H1010.92L1009.63 393.437H1004.51L1012.84 373.018ZM1022.44 422.79H1003.87V398.542H1022.44V403.647H1010.27V408.114H1019.24V413.219H1010.27V417.685H1022.44V422.79ZM1048.06 422.79H1042.29L1037.17 416.409L1032.05 408.114C1031.41 408.114 1032.05 411.942 1032.05 417.685V422.79H1025.64V398.542H1031.41L1036.53 405.561L1042.29 412.581V398.542H1048.06V422.79ZM1049.98 386.418V393.437H1044.86V373.018H1049.98V380.675L1052.54 377.485L1057.66 373.018H1064.07L1055.1 381.313L1064.07 393.437H1058.3L1051.9 385.142L1049.98 386.418ZM1062.79 422.79H1051.9V398.542H1062.79C1064.44 398.455 1066.09 398.705 1067.64 399.275C1069.19 399.846 1070.61 400.725 1071.81 401.859C1073.01 402.994 1073.96 404.36 1074.61 405.874C1075.26 407.388 1075.6 409.019 1075.59 410.666C1075.6 412.314 1075.26 413.944 1074.61 415.458C1073.96 416.972 1073.01 418.338 1071.81 419.473C1070.61 420.608 1069.19 421.487 1067.64 422.057C1066.09 422.628 1064.44 422.877 1062.79 422.79ZM1094.81 403.647H1083.28V408.752H1092.24V413.857H1083.28V422.79H1077.52V398.542H1094.81V403.647ZM1103.13 422.79H1097.37V398.542H1103.13V422.79ZM1094.17 383.228C1094.07 381.779 1094.29 380.326 1094.8 378.968C1095.32 377.609 1096.11 376.375 1097.15 375.349C1098.18 374.322 1099.41 373.526 1100.78 373.014C1102.14 372.502 1103.6 372.286 1105.05 372.38C1106.95 372.348 1108.81 372.876 1110.41 373.899C1112 374.921 1113.26 376.39 1114.02 378.123L1108.89 379.399C1108.47 378.785 1107.89 378.288 1107.22 377.953C1106.55 377.619 1105.8 377.458 1105.05 377.485C1103.52 377.485 1102.06 378.09 1100.98 379.167C1099.9 380.244 1099.29 381.704 1099.29 383.228C1099.29 384.751 1099.9 386.211 1100.98 387.288C1102.06 388.365 1103.52 388.971 1105.05 388.971C1108.25 388.971 1110.18 387.694 1110.18 385.78H1105.05V381.951H1114.66V393.437H1110.18V392.161C1109.53 393.437 1106.97 394.075 1105.05 394.075C1103.6 394.169 1102.14 393.953 1100.78 393.441C1099.41 392.929 1098.18 392.133 1097.15 391.106C1096.11 390.08 1095.32 388.846 1094.8 387.487C1094.29 386.129 1094.07 384.676 1094.17 383.228ZM1124.9 422.79H1106.97V398.542H1124.9V403.647H1112.74V408.114H1122.34V413.219H1112.74V417.685H1124.9V422.79ZM1130.03 380.675V373.018H1135.15V393.437H1130.03V385.78H1122.34V393.437H1117.22V373.018H1122.34V380.675H1130.03ZM1146.04 422.79H1128.75V398.542H1134.51V417.685H1146.04V422.79ZM1147.32 393.437H1142.83V377.485H1136.43V373.018H1153.72V377.485H1147.32V393.437ZM1159.48 384.504C1158.12 384.231 1156.88 383.523 1155.96 382.487C1155.03 381.451 1154.47 380.143 1154.36 378.761C1154.44 377.838 1154.7 376.939 1155.14 376.118C1155.57 375.297 1156.16 374.568 1156.87 373.975C1157.58 373.382 1158.41 372.935 1159.3 372.662C1160.19 372.388 1161.12 372.292 1162.05 372.38C1163.79 372.325 1165.5 372.863 1166.9 373.907C1168.3 374.951 1169.3 376.438 1169.73 378.123L1165.25 379.399C1165.17 378.976 1165.01 378.573 1164.77 378.213C1164.54 377.854 1164.23 377.546 1163.87 377.307C1163.51 377.069 1163.11 376.905 1162.69 376.826C1162.26 376.747 1161.83 376.754 1161.41 376.846C1160.13 376.846 1159.48 377.485 1159.48 378.123C1159.48 378.761 1161.41 380.037 1163.97 381.313C1166.53 382.589 1170.37 383.866 1170.37 387.694C1170.37 391.523 1167.17 394.075 1162.05 394.075C1160.05 394.158 1158.09 393.575 1156.46 392.419C1154.84 391.263 1153.65 389.6 1153.08 387.694L1158.2 386.418C1158.84 387.694 1160.13 389.609 1162.05 389.609C1163.97 389.609 1164.61 388.971 1164.61 387.694C1164.61 386.418 1162.69 385.78 1159.48 384.504ZM1158.84 422.79H1147.96V398.542H1158.84C1160.5 398.455 1162.15 398.705 1163.7 399.275C1165.25 399.846 1166.67 400.725 1167.86 401.859C1169.06 402.994 1170.02 404.36 1170.67 405.874C1171.32 407.388 1171.65 409.019 1171.65 410.666C1171.65 412.314 1171.32 413.944 1170.67 415.458C1170.02 416.972 1169.06 418.338 1167.86 419.473C1166.67 420.608 1165.25 421.487 1163.7 422.057C1162.15 422.628 1160.5 422.877 1158.84 422.79ZM1181.26 240.929H1103.77V186.052L1181.26 240.929ZM927.665 152.232L903.331 170.737L962.246 212.214V175.842L927.665 152.232ZM857.223 191.157H827.765V240.929H857.223V191.157ZM871.312 37.3722C873.13 38.761 874.654 40.4963 875.794 42.4771C879.07 40.6379 881.873 38.0675 883.984 34.9676C886.095 31.8676 887.456 28.3224 887.962 24.61H900.769C900.129 30.9911 899.488 34.8198 898.208 35.4579H888.602C889.998 37.3269 890.881 39.5262 891.163 41.839H898.208C900.362 41.6588 902.393 40.7595 903.971 39.2866C906.272 33.6171 907.363 27.5321 907.173 21.4195V18.8671H888.602C889.08 17.4279 889.297 15.9153 889.242 14.4003H911.015V8.0192H893.725L896.287 6.74298L893.085 1L887.321 3.55244L889.242 8.0192H871.952V14.4003H882.198C882.77 18.8651 882.049 23.3997 880.12 27.4696C878.191 31.5396 875.135 34.9755 871.312 37.3722ZM924.463 29.7149C927.085 31.2703 929.459 33.2059 931.508 35.4579L935.35 31.6293C933.41 29.429 931.004 27.6854 928.306 26.5244L924.463 29.7149ZM843.775 38.6485H861.706V41.839H868.11V4.19055H837.371V41.839H843.775V38.6485ZM843.775 10.5716H861.706V18.229H843.775V10.5716ZM843.775 24.61H861.706V32.9055H843.775V24.61ZM1037.17 380.037C1037.17 379.36 1036.9 378.711 1036.42 378.232C1035.94 377.753 1035.29 377.485 1034.61 377.485H1031.41V382.589H1034.61C1035.29 382.589 1035.94 382.321 1036.42 381.842C1036.9 381.363 1037.17 380.714 1037.17 380.037ZM822.002 191.157H792.544V240.929H822.002V191.157ZM1062.79 403.647H1057.66V417.685H1062.79C1063.68 417.69 1064.57 417.506 1065.39 417.146C1066.22 416.787 1066.95 416.259 1067.56 415.597C1068.16 414.935 1068.62 414.154 1068.9 413.305C1069.18 412.455 1069.28 411.556 1069.19 410.666C1069.2 408.91 1068.54 407.215 1067.36 405.916C1066.17 404.616 1064.54 403.807 1062.79 403.647ZM807.273 38.6485L812.396 42.4771C816.083 38.8469 818.545 34.1637 819.44 29.0768H827.125V35.4579H820.721C821.653 37.4867 822.3 39.634 822.642 41.839L830.967 40.5628C832.888 39.2866 833.529 38.0103 833.529 34.8198V3.55244H814.317V18.8671C814.705 22.4795 814.274 26.1327 813.055 29.5566C811.835 32.9805 809.859 36.0877 807.273 38.6485ZM820.081 9.29542H827.125V13.1241H820.081V9.29542ZM820.081 18.8671H827.125V23.3338H820.081V18.8671ZM1016.04 381.951C1015.96 380.865 1015.75 379.793 1015.4 378.761L1014.12 381.951L1012.84 385.78H1017.96L1016.04 381.951ZM864.908 50.7725H826.485L793.825 94.164V133.089H802.79L864.908 50.7725ZM1158.84 403.647H1153.72V417.685H1158.84C1159.74 417.69 1160.63 417.506 1161.45 417.146C1162.27 416.787 1163.01 416.259 1163.61 415.597C1164.22 414.935 1164.68 414.154 1164.96 413.305C1165.24 412.455 1165.34 411.556 1165.25 410.666C1165.26 408.91 1164.6 407.215 1163.42 405.916C1162.23 404.616 1160.6 403.807 1158.84 403.647ZM801.51 30.353H811.115V4.19055H795.746V34.1817H801.51V30.353ZM801.51 9.29542H805.352V14.4003H801.51V9.29542ZM801.51 19.5052H805.352V24.61H801.51V19.5052Z"
    fill="#494368"
  />
</svg>
